# xmcd CD database file generated by OrangeCD 6.4
#
# Track frame offsets:
#	150
#	14221
#	28285
#	43387
#	57420
#	70680
#	83802
#	98014
#	112498
#	126327
#	140316
#	154216
#	166112
#	179707
#	194155
#	208605
#	222357
#	234487
#	253927
#	268155
#
# Disc length: 3797 seconds
#
# Revision: 0
# Processed by: cddbd v1.5.2PL0 Copyright (c) Steve Scherf et al.
# Submitted via: OrangeCD 6.4
#
DISCID=440ed314
DTITLE=Leadbelly - The Very Best Of
DYEAR=1900
DGENRE=Blues
TTITLE0=The Gallis Pole
TTITLE1=The Boll Weevil
TTITLE2=Bourgeois Blues
TTITLE3=Poor Howard - Green Corn
TTITLE4=Dekalb Blues
TTITLE5=Good Morning Blues
TTITLE6=The Red Cross Store Blues
TTITLE7=Alberta
TTITLE8=Pick A Bale Of Cotton
TTITLE9=Midnight Special
TTITLE10=Alabama Bound
TTITLE11=Rock Island Line
TTITLE12=Roberta
TTITLE13=I'm On My Last Go-Round
TTITLE14=Easy Rider
TTITLE15=New York City
TTITLE16=Good Night Irene
TTITLE17=John Hardy
TTITLE18=Cow Cow Yicky Yicky Yeah..
TTITLE19=T.B. Blues
EXTD=
EXTT0=
EXTT1=
EXTT2=
EXTT3=
EXTT4=
EXTT5=
EXTT6=
EXTT7=
EXTT8=
EXTT9=
EXTT10=
EXTT11=
EXTT12=
EXTT13=
EXTT14=
EXTT15=
EXTT16=
EXTT17=
EXTT18=
EXTT19=
PLAYORDER=
